<?xml version="1.0" encoding="UTF-8" standalone="no"?>
<svg
   xmlns:dc="http://purl.org/dc/elements/1.1/"
   xmlns:cc="http://creativecommons.org/ns#"
   xmlns:rdf="http://www.w3.org/1999/02/22-rdf-syntax-ns#"
   xmlns:svg="http://www.w3.org/2000/svg"
   xmlns="http://www.w3.org/2000/svg"
   xmlns:sodipodi="http://sodipodi.sourceforge.net/DTD/sodipodi-0.dtd"
   xmlns:inkscape="http://www.inkscape.org/namespaces/inkscape"
   height="24"
   viewBox="0 0 24 24"
   width="24"
   version="1.1"
   id="svg831"
   sodipodi:docname="baseline-select-box-24px.svg"
   inkscape:version="0.92.2 (5c3e80d, 2017-08-06)">
  <metadata
     id="metadata837">
    <rdf:RDF>
      <cc:Work
         rdf:about="">
        <dc:format>image/svg+xml</dc:format>
        <dc:type
           rdf:resource="http://purl.org/dc/dcmitype/StillImage" />
        <dc:title></dc:title>
      </cc:Work>
    </rdf:RDF>
  </metadata>
  <defs
     id="defs835" />
  <sodipodi:namedview
     pagecolor="#ffffff"
     bordercolor="#666666"
     borderopacity="1"
     objecttolerance="10"
     gridtolerance="10"
     guidetolerance="10"
     inkscape:pageopacity="0"
     inkscape:pageshadow="2"
     inkscape:window-width="1920"
     inkscape:window-height="1001"
     id="namedview833"
     showgrid="false"
     inkscape:zoom="22.922045"
     inkscape:cx="6.7684908"
     inkscape:cy="11.016088"
     inkscape:window-x="-9"
     inkscape:window-y="-9"
     inkscape:window-maximized="1"
     inkscape:current-layer="svg831" />
  <path
     d="M0 0h24v24H0z"
     fill="none"
     id="path827" />
  <g
     id="g840"
     transform="translate(-0.58611825,-2.714653)" />
  <g
     transform="rotate(180,10.480493,11.261833)"
     id="g858">
    <path
       id="path854"
       d="M 17.642674,19.401028 H 3.6426735 V 5.4010283 h 7.0000005 v -2 H 3.6426735 c -1.11,0 -2,0.9 -2,2 V 19.401028 c 0,1.1 0.89,2 2,2 H 17.642674 c 1.1,0 2,-0.9 2,-2 v -7 h -2 z M 12.358253,6.627251 h -2.000001 v 3.59 L 0.52825225,0.38725 l -1.41,1.41 9.82999995,9.830001 h -3.59 v 2 H 12.358253 Z M 3.6426742,5.401029 H 17.642675 v 14 h -7.000001 v 2 h 7.000001 c 1.11,0 2,-0.9 2,-2 v -14 c 0,-1.1 -0.89,-2 -2,-2 H 3.6426742 c -1.1,0 -2,0.9 -2,2 v 7 h 2 z"
       inkscape:connector-curvature="0" />
  </g>
</svg>
