<?xml version="1.0" encoding="UTF-8" standalone="no"?>
<svg
   xmlns:dc="http://purl.org/dc/elements/1.1/"
   xmlns:cc="http://creativecommons.org/ns#"
   xmlns:rdf="http://www.w3.org/1999/02/22-rdf-syntax-ns#"
   xmlns:svg="http://www.w3.org/2000/svg"
   xmlns="http://www.w3.org/2000/svg"
   xmlns:sodipodi="http://sodipodi.sourceforge.net/DTD/sodipodi-0.dtd"
   xmlns:inkscape="http://www.inkscape.org/namespaces/inkscape"
   height="24"
   viewBox="0 0 24 24"
   width="24"
   version="1.1"
   id="svg891"
   sodipodi:docname="baseline-select-box2-24px.svg"
   inkscape:version="0.92.2 (5c3e80d, 2017-08-06)">
  <metadata
     id="metadata897">
    <rdf:RDF>
      <cc:Work
         rdf:about="">
        <dc:format>image/svg+xml</dc:format>
        <dc:type
           rdf:resource="http://purl.org/dc/dcmitype/StillImage" />
        <dc:title></dc:title>
      </cc:Work>
    </rdf:RDF>
  </metadata>
  <defs
     id="defs895" />
  <sodipodi:namedview
     pagecolor="#ffffff"
     bordercolor="#666666"
     borderopacity="1"
     objecttolerance="10"
     gridtolerance="10"
     guidetolerance="10"
     inkscape:pageopacity="0"
     inkscape:pageshadow="2"
     inkscape:window-width="1920"
     inkscape:window-height="1001"
     id="namedview893"
     showgrid="false"
     inkscape:zoom="19.666667"
     inkscape:cx="17.901724"
     inkscape:cy="11.340586"
     inkscape:window-x="-9"
     inkscape:window-y="-9"
     inkscape:window-maximized="1"
     inkscape:current-layer="svg891" />
  <path
     d="M0 0h24v24H0z"
     fill="none"
     id="path887" />
  <path
     d="M 1,3 H 3 V 1 C 1.9,1 1,1.9 1,3 Z"
     id="path5165"
     inkscape:connector-curvature="0" />
  <path
     d="M 1,11 H 3 V 9 H 1 Z"
     id="path5163"
     inkscape:connector-curvature="0" />
  <path
     d="M 5,19 H 7 V 17 H 5 Z"
     id="path5161"
     inkscape:connector-curvature="0" />
  <path
     d="M 1,7 H 3 V 5 H 1 Z"
     id="path5159"
     inkscape:connector-curvature="0" />
  <path
     d="M 11,1 H 9 v 2 h 2 z"
     id="path5157"
     inkscape:connector-curvature="0" />
  <path
     d="m 17,1 v 2 h 2 C 19,1.9 18.1,1 17,1 Z"
     id="path5155"
     inkscape:connector-curvature="0" />
  <path
     d="M 3,19 V 17 H 1 c 0,1.1 0.9,2 2,2 z"
     id="path5153"
     inkscape:connector-curvature="0" />
  <path
     d="M 1,15 H 3 V 13 H 1 Z"
     id="path5151"
     inkscape:connector-curvature="0" />
  <path
     d="M 7,1 H 5 v 2 h 2 z"
     id="path5149"
     inkscape:connector-curvature="0" />
  <path
     d="m 9,19 h 2 V 17 H 9 Z"
     id="path5147"
     inkscape:connector-curvature="0" />
  <path
     d="m 17,11 h 2 V 9 h -2 z"
     id="path5145"
     inkscape:connector-curvature="0" />
  <path
     d="m 17,19 c 1.1,0 2,-0.9 2,-2 h -2 z"
     id="path5143"
     inkscape:connector-curvature="0" />
  <path
     d="m 17,7 h 2 V 5 h -2 z"
     id="path5141"
     inkscape:connector-curvature="0" />
  <path
     d="m 17,15 h 2 v -2 h -2 z"
     id="path5139"
     inkscape:connector-curvature="0" />
  <path
     d="m 13,19 h 2 v -2 h -2 z"
     id="path5137"
     inkscape:connector-curvature="0" />
  <path
     d="m 13,3 h 2 V 1 h -2 z"
     id="path5135"
     inkscape:connector-curvature="0" />
  <path
     d="m 10.210507,16.11122 h 1.64668 v -3.0523 l 8.09343,8.357691 1.160909,-1.198814 -8.09343,-8.357691 h 2.95579 V 10.15966 h -5.763379 z"
     id="path829"
     inkscape:connector-curvature="0"
     style="stroke-width:0.83667326" />
</svg>
