<?xml version="1.0" encoding="UTF-8" standalone="no"?>
<svg
   width="24"
   height="24"
   viewBox="0 0 24 24"
   version="1.1"
   id="svg4"
   sodipodi:docname="fullscreen.svg"
   xml:space="preserve"
   inkscape:version="1.2.1 (9c6d41e410, 2022-07-14)"
   xmlns:inkscape="http://www.inkscape.org/namespaces/inkscape"
   xmlns:sodipodi="http://sodipodi.sourceforge.net/DTD/sodipodi-0.dtd"
   xmlns:xlink="http://www.w3.org/1999/xlink"
   xmlns="http://www.w3.org/2000/svg"
   xmlns:svg="http://www.w3.org/2000/svg"><defs
     id="defs8" /><sodipodi:namedview
     id="namedview6"
     pagecolor="#ffffff"
     bordercolor="#000000"
     borderopacity="0.25"
     inkscape:showpageshadow="2"
     inkscape:pageopacity="0.0"
     inkscape:pagecheckerboard="0"
     inkscape:deskcolor="#d1d1d1"
     showgrid="false"
     inkscape:zoom="21.395833"
     inkscape:cx="-8.9970789"
     inkscape:cy="-1.4956183"
     inkscape:window-width="3840"
     inkscape:window-height="1526"
     inkscape:window-x="-11"
     inkscape:window-y="-11"
     inkscape:window-maximized="1"
     inkscape:current-layer="g5456" /><g
     id="g4142"
     transform="matrix(0.18532639,0,0,0.12867203,-83.671769,-29.8959)"><g
       id="g5432"
       transform="translate(1.765353)"
       style="fill:#ffffff;fill-opacity:1"><rect
         width="21.22188"
         height="41.468044"
         x="254.49391"
         y="-349.73703"
         transform="matrix(0.56131717,0.82760077,-0.99747581,-0.07100715,0,0)"
         style="fill:#ffffff;fill-opacity:1;stroke-width:14.7825;stroke-miterlimit:4;stroke-dasharray:none;stroke-opacity:1"
         id="rect4116" /><use
         transform="matrix(1.4693153e-8,1.4403005,0.69429954,-1.4693153e-8,288.96723,-416.19967)"
         id="use4120"
         x="0"
         y="0"
         width="434"
         height="364"
         xlink:href="#rect4116"
         style="fill:#ffffff;fill-opacity:1" /><rect
         width="78.6185"
         height="19.358643"
         x="549.06653"
         y="-264.51843"
         style="fill:#ffffff;fill-opacity:1;stroke-width:16.2759;stroke-miterlimit:4;stroke-dasharray:none;stroke-opacity:1"
         id="rect4122"
         transform="matrix(0.57031551,0.82142572,-0.57031551,0.82142572,0,0)" /></g><g
       id="g5440"
       transform="matrix(-2.2835819e-8,1.4403005,-0.69429955,0,742.34458,-415.548)"
       style="fill:#ffffff;fill-opacity:1"><rect
         width="21.22188"
         height="41.468044"
         x="254.49391"
         y="-349.73703"
         transform="matrix(0.56131717,0.82760077,-0.99747581,-0.07100715,0,0)"
         style="fill:#ffffff;fill-opacity:1;stroke-width:14.7825;stroke-miterlimit:4;stroke-dasharray:none;stroke-opacity:1"
         id="rect5434" /><use
         transform="matrix(1.4693153e-8,1.4403005,0.69429954,-1.4693153e-8,288.96723,-416.19967)"
         id="use5436"
         x="0"
         y="0"
         width="434"
         height="364"
         xlink:href="#rect4116"
         style="fill:#ffffff;fill-opacity:1" /><rect
         width="78.6185"
         height="19.358643"
         x="549.06653"
         y="-264.51843"
         style="fill:#ffffff;fill-opacity:1;stroke-width:16.2759;stroke-miterlimit:4;stroke-dasharray:none;stroke-opacity:1"
         id="rect5438"
         transform="matrix(0.57031551,0.82142572,-0.57031551,0.82142572,0,0)" /></g><g
       id="g5448"
       transform="rotate(180,515.93406,326.09915)"
       style="fill:#ffffff;fill-opacity:1"><rect
         width="21.22188"
         height="41.468044"
         x="254.49391"
         y="-349.73703"
         transform="matrix(0.56131717,0.82760077,-0.99747581,-0.07100715,0,0)"
         style="fill:#ffffff;fill-opacity:1;stroke-width:14.7825;stroke-miterlimit:4;stroke-dasharray:none;stroke-opacity:1"
         id="rect5442" /><use
         transform="matrix(1.4693153e-8,1.4403005,0.69429954,-1.4693153e-8,288.96723,-416.19967)"
         id="use5444"
         x="0"
         y="0"
         width="434"
         height="364"
         xlink:href="#rect4116"
         style="fill:#ffffff;fill-opacity:1" /><rect
         width="78.6185"
         height="19.358643"
         x="549.06653"
         y="-264.51843"
         style="fill:#ffffff;fill-opacity:1;stroke-width:16.2759;stroke-miterlimit:4;stroke-dasharray:none;stroke-opacity:1"
         id="rect5446"
         transform="matrix(0.57031551,0.82142572,-0.57031551,0.82142572,0,0)" /></g><g
       id="g5456"
       transform="matrix(2.2835819e-8,-1.4403005,0.69429955,0,290.28012,1067.7463)"><rect
         width="21.22188"
         height="41.468044"
         x="254.49391"
         y="-349.73703"
         transform="matrix(0.56131717,0.82760077,-0.99747581,-0.07100715,0,0)"
         style="fill:#ffffff;fill-opacity:1;stroke-width:14.7825;stroke-miterlimit:4;stroke-dasharray:none;stroke-opacity:1"
         id="rect5450" /><use
         transform="matrix(1.4693153e-8,1.4403005,0.69429954,-1.4693153e-8,288.96723,-416.19967)"
         id="use5452"
         x="0"
         y="0"
         width="434"
         height="364"
         xlink:href="#rect4116"
         style="fill:#ffffff;fill-opacity:1" /><rect
         width="78.6185"
         height="19.358643"
         x="549.06653"
         y="-264.51843"
         style="fill:#ffffff;fill-opacity:1;stroke-width:16.2759;stroke-miterlimit:4;stroke-dasharray:none;stroke-opacity:1"
         id="rect5454"
         transform="matrix(0.57031551,0.82142572,-0.57031551,0.82142572,0,0)" /></g></g></svg>
