<?xml version="1.0" encoding="UTF-8"?>
<svg  viewBox="0 0 24 24" version="1.1"  width="24px"  height="24px"
    xmlns="http://www.w3.org/2000/svg" 
    xmlns:xlink="http://www.w3.org/1999/xlink">
    <path d="M9,15 C5.686667,15 3,12.313333 3,9 C3,5.686667 5.686667,3 9,3 C12.314667,3 15,5.686667 15,9 C15,12.313333 12.314667,15 9,15 M8.919383,0 C3.993139,0 0,3.992911 0,8.918873 C0,13.844834 3.993139,17.837745 8.919383,17.837745 C11.134134,17.837745 13.158148,17.025442 14.716981,15.687611 L15.095712,16.064948 L15.095712,17.151678 L21.954031,24 L24,21.954148 L17.155403,15.093477 L16.065866,15.093477 L15.687136,14.717512 C17.026415,13.157395 17.838765,11.134869 17.838765,8.918873 C17.838765,3.992911 13.845626,0 8.919383,0"></path>
</svg>