<?xml version="1.0" encoding="UTF-8" standalone="no"?>
<svg
   xmlns:dc="http://purl.org/dc/elements/1.1/"
   xmlns:cc="http://creativecommons.org/ns#"
   xmlns:rdf="http://www.w3.org/1999/02/22-rdf-syntax-ns#"
   xmlns:svg="http://www.w3.org/2000/svg"
   xmlns="http://www.w3.org/2000/svg"
   xmlns:sodipodi="http://sodipodi.sourceforge.net/DTD/sodipodi-0.dtd"
   xmlns:inkscape="http://www.inkscape.org/namespaces/inkscape"
   height="24"
   viewBox="0 0 24 24"
   width="24"
   version="1.1"
   id="svg2082"
   sodipodi:docname="measure-area-24px.svg"
   inkscape:version="0.92.2 (5c3e80d, 2017-08-06)">
  <metadata
     id="metadata2088">
    <rdf:RDF>
      <cc:Work
         rdf:about="">
        <dc:format>image/svg+xml</dc:format>
        <dc:type
           rdf:resource="http://purl.org/dc/dcmitype/StillImage" />
        <dc:title></dc:title>
      </cc:Work>
    </rdf:RDF>
  </metadata>
  <defs
     id="defs2086" />
  <sodipodi:namedview
     pagecolor="#ffffff"
     bordercolor="#666666"
     borderopacity="1"
     objecttolerance="10"
     gridtolerance="10"
     guidetolerance="10"
     inkscape:pageopacity="0"
     inkscape:pageshadow="2"
     inkscape:window-width="1920"
     inkscape:window-height="1001"
     id="namedview2084"
     showgrid="false"
     inkscape:zoom="19.666667"
     inkscape:cx="9.5358093"
     inkscape:cy="7.4045818"
     inkscape:window-x="-9"
     inkscape:window-y="-9"
     inkscape:window-maximized="1"
     inkscape:current-layer="svg2082" />
  <path
     d="M0 0h24v24H0V0z"
     fill="none"
     id="path2078" />
  <path
     d="m 16.701169,3.4962712 c -0.252,-0.255 -0.672,-0.42 -1.141,-0.42 l -7.6999995,0.005 c -0.77,0 -1.4,0.445 -1.4,0.995 v 5 c 0,0.55 0.63,0.9949998 1.4,0.9949998 l 7.6999995,0.005 c 0.469,0 0.889,-0.1649998 1.141,-0.4199998 L 18.921186,8.101695 Z m -1.141,5.58 H 7.8601695 v -5 h 7.6999995 l 1.900254,3.720339 z"
     id="path2080"
     inkscape:connector-curvature="0"
     style="stroke-width:0.59160799"
     sodipodi:nodetypes="cccssccccccccccc" />
  <path
     d="M 23,11 H 1 V 23 H 23 Z M 21,21 H 3 v -8 h 2 v 4 h 2 v -4 h 2 v 4 h 2 v -4 h 2 v 4 h 2 v -4 h 2 v 4 h 2 v -4 h 2 z"
     id="path853"
     inkscape:connector-curvature="0" />
</svg>
