<?xml version="1.0" encoding="UTF-8" standalone="no"?>
<svg
   xmlns:dc="http://purl.org/dc/elements/1.1/"
   xmlns:cc="http://creativecommons.org/ns#"
   xmlns:rdf="http://www.w3.org/1999/02/22-rdf-syntax-ns#"
   xmlns:svg="http://www.w3.org/2000/svg"
   xmlns="http://www.w3.org/2000/svg"
   xmlns:sodipodi="http://sodipodi.sourceforge.net/DTD/sodipodi-0.dtd"
   xmlns:inkscape="http://www.inkscape.org/namespaces/inkscape"
   height="24"
   viewBox="0 0 24 24"
   width="24"
   version="1.1"
   id="svg6435"
   sodipodi:docname="rank_quiet-24px.svg"
   inkscape:version="0.92.2 (5c3e80d, 2017-08-06)">
  <metadata
     id="metadata6441">
    <rdf:RDF>
      <cc:Work
         rdf:about="">
        <dc:format>image/svg+xml</dc:format>
        <dc:type
           rdf:resource="http://purl.org/dc/dcmitype/StillImage" />
        <dc:title></dc:title>
      </cc:Work>
    </rdf:RDF>
  </metadata>
  <defs
     id="defs6439" />
  <sodipodi:namedview
     pagecolor="#ffffff"
     bordercolor="#666666"
     borderopacity="1"
     objecttolerance="10"
     gridtolerance="10"
     guidetolerance="10"
     inkscape:pageopacity="0"
     inkscape:pageshadow="2"
     inkscape:window-width="1920"
     inkscape:window-height="1001"
     id="namedview6437"
     showgrid="false"
     inkscape:zoom="9.8333333"
     inkscape:cx="-1.9322034"
     inkscape:cy="12"
     inkscape:window-x="-9"
     inkscape:window-y="-9"
     inkscape:window-maximized="1"
     inkscape:current-layer="svg6435" />
  <path
     d="M0 0h24v24H0V0z"
     fill="none"
     id="path6431" />
  <path
     d="M20 2H4c-1.1 0-2 .9-2 2v18l4-4h14c1.1 0 2-.9 2-2V4c0-1.1-.9-2-2-2zm0 14H6l-2 2V4h16v12z"
     id="path6433" />
  <g
     id="g7004"
     transform="matrix(0.49,0,0,0.49,6.52,3.72)">
    <rect
       style="fill:none"
       y="0"
       height="24"
       width="24"
       x="0"
       id="rect7000" />
    <path
       inkscape:connector-curvature="0"
       d="M 12,8.89 12.94,12 h 2.82 l -2.27,1.62 0.93,3.01 L 12,14.79 9.58,16.63 10.51,13.62 8.24,12 h 2.82 L 12,8.89 M 12,2 9.58,10 H 2 L 8.17,14.41 5.83,22 12,17.31 18.18,22 15.83,14.41 22,10 h -7.58 z"
       id="path7002" />
  </g>
</svg>
