<?xml version="1.0" encoding="UTF-8" standalone="no"?>
<svg
   enable-background="new 0 0 24 24"
   height="24px"
   viewBox="0 0 24 24"
   width="24px"
   fill="#000000"
   version="1.1"
   id="svg892"
   sodipodi:docname="rate_quiet_area.svg"
   inkscape:version="1.1 (c68e22c387, 2021-05-23)"
   xmlns:inkscape="http://www.inkscape.org/namespaces/inkscape"
   xmlns:sodipodi="http://sodipodi.sourceforge.net/DTD/sodipodi-0.dtd"
   xmlns="http://www.w3.org/2000/svg"
   xmlns:svg="http://www.w3.org/2000/svg">
  <defs
     id="defs896" />
  <sodipodi:namedview
     id="namedview894"
     pagecolor="#ffffff"
     bordercolor="#666666"
     borderopacity="1.0"
     inkscape:pageshadow="2"
     inkscape:pageopacity="0.0"
     inkscape:pagecheckerboard="0"
     showgrid="false"
     inkscape:zoom="30.875"
     inkscape:cx="11.983806"
     inkscape:cy="12"
     inkscape:window-width="1920"
     inkscape:window-height="1001"
     inkscape:window-x="-9"
     inkscape:window-y="1191"
     inkscape:window-maximized="1"
     inkscape:current-layer="svg892" />
  <g
     id="g880">
    <path
       d="M0,0h24v24H0V0z"
       fill="none"
       id="path878" />
  </g>
  <g
     id="g890">
    <g
       id="g888">
      <circle
         cx="10"
         cy="8"
         r="4"
         id="circle882" />
      <path
         d="M10.67,13.02C10.45,13.01,10.23,13,10,13c-2.42,0-4.68,0.67-6.61,1.82C2.51,15.34,2,16.32,2,17.35V20h9.26 C10.47,18.87,10,17.49,10,16C10,14.93,10.25,13.93,10.67,13.02z"
         id="path884" />
    </g>
  </g>
  <path
     d="m 11.26,12.8 h 7.2 V 20 h -7.2 z"
     fill="none"
     id="path992"
     style="stroke-width:0.3" />
  <g
     id="g1360"
     transform="matrix(0.3,0,0,0.3,11.26,12.8)">
    <circle
       cx="15.5"
       cy="9.5"
       r="1.5"
       id="circle994" />
    <circle
       cx="8.5"
       cy="9.5"
       r="1.5"
       id="circle996" />
    <path
       d="M 11.99,2 C 6.47,2 2,6.48 2,12 2,17.52 6.47,22 11.99,22 17.52,22 22,17.52 22,12 22,6.48 17.52,2 11.99,2 Z M 12,20 C 7.58,20 4,16.42 4,12 4,7.58 7.58,4 12,4 c 4.42,0 8,3.58 8,8 0,4.42 -3.58,8 -8,8 z M 7,14 c 0.78,2.34 2.72,4 5,4 2.28,0 4.22,-1.66 5,-4 z"
       id="path998" />
  </g>
</svg>
