<?xml version="1.0" encoding="UTF-8" standalone="no"?>
<svg
   xmlns:dc="http://purl.org/dc/elements/1.1/"
   xmlns:cc="http://creativecommons.org/ns#"
   xmlns:rdf="http://www.w3.org/1999/02/22-rdf-syntax-ns#"
   xmlns:svg="http://www.w3.org/2000/svg"
   xmlns="http://www.w3.org/2000/svg"
   xmlns:sodipodi="http://sodipodi.sourceforge.net/DTD/sodipodi-0.dtd"
   xmlns:inkscape="http://www.inkscape.org/namespaces/inkscape"
   enable-background="new 0 0 579.997 579.997"
   height="579.997"
   viewBox="0 0 579.997 579.997"
   width="579.997"
   version="1.1"
   id="svg859"
   sodipodi:docname="shop=supermarket.svg"
   inkscape:version="0.92.2 (5c3e80d, 2017-08-06)">
  <metadata
     id="metadata865">
    <rdf:RDF>
      <cc:Work
         rdf:about="">
        <dc:format>image/svg+xml</dc:format>
        <dc:type
           rdf:resource="http://purl.org/dc/dcmitype/StillImage" />
      </cc:Work>
    </rdf:RDF>
  </metadata>
  <defs
     id="defs863" />
  <sodipodi:namedview
     pagecolor="#ffffff"
     bordercolor="#666666"
     borderopacity="1"
     objecttolerance="10"
     gridtolerance="10"
     guidetolerance="10"
     inkscape:pageopacity="0"
     inkscape:pageshadow="2"
     inkscape:window-width="1920"
     inkscape:window-height="1001"
     id="namedview861"
     showgrid="false"
     inkscape:zoom="0.40689865"
     inkscape:cx="289.9985"
     inkscape:cy="289.9985"
     inkscape:window-x="-9"
     inkscape:window-y="-9"
     inkscape:window-maximized="1"
     inkscape:current-layer="svg859" />
  <path
     d="m506.043 75.631c-10.592-8.793-23.444-12.57-36.155-12.43-12.712.143-25.74 3.689-36.156 12.43-10.416 8.756-16.948 22.527-16.948 38.416v22.598l-355.912 48.584-19.208 2.26 4.52 20.338 41.806 168.352 3.39 13.559h13.558 311.847v40.676h-313.049l9.074 36.156h322.051 18.078v-18.08-58.754-18.078-219.195-21.469-16.947c0-6.109 1.554-7.662 4.52-10.17 2.966-2.506 7.273-4.449 12.429-4.52 5.154-.053 10.733 1.041 13.559 3.391 2.824 2.365 4.52 4.625 4.52 11.299h36.155c-.001-16.119-7.521-29.625-18.079-38.416zm-407.885 193.209l-12.429-49.715 76.831-11.299 7.909 54.234zm21.467 84.74l-12.429-49.715 68.923-5.648 9.039 55.363zm79.092-150.273l92.65-12.43 4.519 58.754-88.13 9.039zm22.597 150.273l-9.039-58.754 85.87-9.039 5.649 67.793zm195.469 0h-76.832l-5.649-71.182 82.481-7.91zm0-115.248l-84.741 7.91-4.52-61.014 89.261-12.43z"
     fill="param(fill)"
     fill-opacity="param(fill-opacity)"
     stroke="param(outline)"
     stroke-opacity="param(outline-opacity)"
     stroke-width="param(outline-width)"
     id="path853"
     style="fill:#ffffff" />
  <path
     d="m158.235 469.604c-18.484 0-33.455 14.973-33.455 33.473 0 18.467 14.971 33.473 33.455 33.473s33.455-15.006 33.455-33.473c0-18.501-14.97-33.473-33.455-33.473z"
     fill="param(fill)"
     fill-opacity="param(fill-opacity)"
     stroke="param(outline)"
     stroke-opacity="param(outline-opacity)"
     stroke-width="param(outline-width)"
     id="path855"
     style="fill:#ffffff" />
  <path
     d="m417.983 468.475c-18.466 0-33.473 14.971-33.473 33.473 0 18.467 15.007 33.438 33.473 33.438 18.502 0 33.473-14.971 33.473-33.438 0-18.503-14.971-33.473-33.473-33.473z"
     fill="param(fill)"
     fill-opacity="param(fill-opacity)"
     stroke="param(outline)"
     stroke-opacity="param(outline-opacity)"
     stroke-width="param(outline-width)"
     id="path857"
     style="fill:#ffffff" />
</svg>
