<?xml version="1.0" encoding="UTF-8" standalone="no"?>
<svg
   xmlns:dc="http://purl.org/dc/elements/1.1/"
   xmlns:cc="http://creativecommons.org/ns#"
   xmlns:rdf="http://www.w3.org/1999/02/22-rdf-syntax-ns#"
   xmlns:svg="http://www.w3.org/2000/svg"
   xmlns="http://www.w3.org/2000/svg"
   xmlns:sodipodi="http://sodipodi.sourceforge.net/DTD/sodipodi-0.dtd"
   xmlns:inkscape="http://www.inkscape.org/namespaces/inkscape"
   height="24px"
   viewBox="0 0 24 24"
   width="24px"
   fill="#000000"
   version="1.1"
   id="svg6"
   sodipodi:docname="noiseannoyance-24px.svg"
   inkscape:version="0.92.2 (5c3e80d, 2017-08-06)">
  <metadata
     id="metadata12">
    <rdf:RDF>
      <cc:Work
         rdf:about="">
        <dc:format>image/svg+xml</dc:format>
        <dc:type
           rdf:resource="http://purl.org/dc/dcmitype/StillImage" />
        <dc:title></dc:title>
      </cc:Work>
    </rdf:RDF>
  </metadata>
  <defs
     id="defs10" />
  <sodipodi:namedview
     pagecolor="#ffffff"
     bordercolor="#666666"
     borderopacity="1"
     objecttolerance="10"
     gridtolerance="10"
     guidetolerance="10"
     inkscape:pageopacity="0"
     inkscape:pageshadow="2"
     inkscape:window-width="1920"
     inkscape:window-height="1001"
     id="namedview8"
     showgrid="false"
     inkscape:zoom="9.8333333"
     inkscape:cx="-21.457627"
     inkscape:cy="12"
     inkscape:window-x="-9"
     inkscape:window-y="1191"
     inkscape:window-maximized="1"
     inkscape:current-layer="svg6" />
  <path
     d="M0 0h24v24H0V0z"
     fill="none"
     id="path2" />
  <path
     d="m 8.8983051,13.101695 c 2.2099999,0 3.9999999,-1.79 3.9999999,-4.0000001 0,-2.21 -1.79,-4 -3.9999999,-4 -2.21,0 -4,1.79 -4,4 0,2.2100001 1.79,4.0000001 4,4.0000001 z m 0,-6.0000001 c 1.1,0 1.9999999,0.9 1.9999999,2 0,1.1000001 -0.8999999,2.0000001 -1.9999999,2.0000001 -1.1,0 -2,-0.9 -2,-2.0000001 0,-1.1 0.9,-2 2,-2 z m 0,8.0000001 c -2.67,0 -8.00000002,1.34 -8.00000002,4 v 2 H 16.898305 v -2 c 0,-2.66 -5.33,-4 -7.9999999,-4 z m -6,4 c 0.22,-0.72 3.31,-2 6,-2 2.6999999,0 5.7999999,1.29 5.9999999,2 z"
     id="path4"
     inkscape:connector-curvature="0"
     sodipodi:nodetypes="ssssssssssssccsscscc"
     style="fill:#ffffff" />
  <path
     d="m 22.795986,9.4161014 c -0.84,-1.18 -0.84,-2.71 0,-3.8899997 l -1.68,-1.69 c -2.02,2.02 -2.02,5.0699997 0,7.2699993 z m -4.99,5.0499996 1.63,-1.63 c -2.77,-3.0199996 -2.77,-7.5599993 0,-10.7399993 l -1.63,-1.62999996 c -3.9,3.88999996 -3.91,9.94999926 0,13.99999926 z"
     id="path4-4"
     inkscape:connector-curvature="0"
     sodipodi:nodetypes="cccccccccc"
     style="fill:#ffffff" />
</svg>
