<?xml version="1.0" encoding="UTF-8" standalone="no"?>
<svg
   height="24px"
   viewBox="0 0 24 24"
   width="24px"
   fill="#000000"
   version="1.1"
   id="svg6"
   sodipodi:docname="organnoyance-24px.svg"
   inkscape:version="1.1 (c68e22c387, 2021-05-23)"
   xmlns:inkscape="http://www.inkscape.org/namespaces/inkscape"
   xmlns:sodipodi="http://sodipodi.sourceforge.net/DTD/sodipodi-0.dtd"
   xmlns="http://www.w3.org/2000/svg"
   xmlns:svg="http://www.w3.org/2000/svg"
   xmlns:rdf="http://www.w3.org/1999/02/22-rdf-syntax-ns#"
   xmlns:cc="http://creativecommons.org/ns#"
   xmlns:dc="http://purl.org/dc/elements/1.1/">
  <metadata
     id="metadata12">
    <rdf:RDF>
      <cc:Work
         rdf:about="">
        <dc:format>image/svg+xml</dc:format>
        <dc:type
           rdf:resource="http://purl.org/dc/dcmitype/StillImage" />
      </cc:Work>
    </rdf:RDF>
  </metadata>
  <defs
     id="defs10" />
  <sodipodi:namedview
     pagecolor="#ffffff"
     bordercolor="#666666"
     borderopacity="1"
     objecttolerance="10"
     gridtolerance="10"
     guidetolerance="10"
     inkscape:pageopacity="0"
     inkscape:pageshadow="2"
     inkscape:window-width="1920"
     inkscape:window-height="1001"
     id="namedview8"
     showgrid="false"
     inkscape:zoom="9.8333333"
     inkscape:cx="-21.355932"
     inkscape:cy="11.949153"
     inkscape:window-x="-9"
     inkscape:window-y="-9"
     inkscape:window-maximized="1"
     inkscape:current-layer="svg6"
     inkscape:pagecheckerboard="0" />
  <path
     d="M0 0h24v24H0V0z"
     fill="none"
     id="path2" />
  <path
     d="m 22.795986,9.4161014 c -0.84,-1.18 -0.84,-2.71 0,-3.8899997 l -1.68,-1.69 c -2.02,2.02 -2.02,5.0699997 0,7.2699993 z m -4.99,5.0499996 1.63,-1.63 c -2.77,-3.0199996 -2.77,-7.5599993 0,-10.7399993 l -1.63,-1.62999996 c -3.9,3.88999996 -3.91,9.94999926 0,13.99999926 z"
     id="path4-4"
     inkscape:connector-curvature="0"
     sodipodi:nodetypes="cccccccccc"
     style="fill:#FFFFFF" />
  <path
     d="m 14.482396,14.382352 h 2.154099 L 9.4561648,5.9745755 2.2758352,14.382352 h 2.1540989 v 7.473579 H 2.3033129 L 2.2758337,14.382352 H 16.636493 l -0.0017,7.473579 h -2.152447 z m 0,0 H 4.4299341 L 9.4561648,8.4875665 Z"
     id="path4566"
     inkscape:connector-curvature="0"
     sodipodi:nodetypes="cccccccccccccccc"
     style="fill:#FFFFFF;stroke-width:0.819014" />
</svg>
