<?xml version="1.0" encoding="UTF-8" standalone="no"?>
<svg
   xmlns:dc="http://purl.org/dc/elements/1.1/"
   xmlns:cc="http://creativecommons.org/ns#"
   xmlns:rdf="http://www.w3.org/1999/02/22-rdf-syntax-ns#"
   xmlns:svg="http://www.w3.org/2000/svg"
   xmlns="http://www.w3.org/2000/svg"
   xmlns:sodipodi="http://sodipodi.sourceforge.net/DTD/sodipodi-0.dtd"
   xmlns:inkscape="http://www.inkscape.org/namespaces/inkscape"
   height="24"
   viewBox="0 0 24 24"
   width="24"
   version="1.1"
   id="svg1986"
   sodipodi:docname="add_noiselocation_alt-24px.svg"
   inkscape:version="0.92.2 (5c3e80d, 2017-08-06)">
  <metadata
     id="metadata1992">
    <rdf:RDF>
      <cc:Work
         rdf:about="">
        <dc:format>image/svg+xml</dc:format>
        <dc:type
           rdf:resource="http://purl.org/dc/dcmitype/StillImage" />
        <dc:title></dc:title>
      </cc:Work>
    </rdf:RDF>
  </metadata>
  <defs
     id="defs1990" />
  <sodipodi:namedview
     pagecolor="#ffffff"
     bordercolor="#666666"
     borderopacity="1"
     objecttolerance="10"
     gridtolerance="10"
     guidetolerance="10"
     inkscape:pageopacity="0"
     inkscape:pageshadow="2"
     inkscape:window-width="1920"
     inkscape:window-height="1001"
     id="namedview1988"
     showgrid="false"
     inkscape:zoom="27.812867"
     inkscape:cx="2.3701721"
     inkscape:cy="11.300774"
     inkscape:window-x="-9"
     inkscape:window-y="-9"
     inkscape:window-maximized="1"
     inkscape:current-layer="svg1986" />
  <path
     d="M0 0h24v24H0z"
     fill="none"
     id="path1982" />
  <path
     d="m 20,1 v 3 h 3 V 6 H 20 V 9 H 18 V 6 H 15 V 4 h 3 V 1 Z M 13,3.06 V 5.08 C 12.669211,5.0277301 12.334892,5.0009846 12,5 8.65,5 6,7.57 6,11.2 c 0,2.34 1.95,5.44 6,9.14 4.05,-3.7 6,-6.79 6,-9.14 V 11 h 2 v 0.2 C 20,14.52 17.33,18.45 12,23 6.67,18.45 4,14.52 4,11.2 4,6.22 7.8,3 12,3 c 0.34,0 0.67,0.02 1,0.06 z"
     id="path1984"
     inkscape:connector-curvature="0"
     sodipodi:nodetypes="ccccccccccccccccscsccscssc" 
	 style="fill:param(fill)#000000"/>
  <path
     d="m 6.9881133,8.8981864 v 3.2999986 h 2.1999998 l 2.7499999,2.75 V 6.1481864 l -2.7499999,2.75 z m 3.8499997,-0.0935 V 12.291685 L 9.6446131,11.098186 h -1.5565 V 9.9981861 h 1.5565 z"
     id="path4"
     inkscape:connector-curvature="0"
     sodipodi:nodetypes="cccccccccccccc"
     style="stroke-width:0.55000001;fill:param(fill)#000000" />
  <path
     d="m 12.492869,12.5977 v 0 l 1.666551,0.446551 -0.366025,1.366025 2.532723,0.676829 0.129024,-0.481524 -2.049039,-0.549038 0.366026,-1.366026 -2.14933,-0.577722 v 0 l -0.07915,0.243286 z"
     id="path860"
     inkscape:connector-curvature="0"
     sodipodi:nodetypes="cccccccccccc"
     style="stroke-width:0.25;fill:param(fill)#000000" />
  <path
     d="m 15.118968,10.770895 -0.0045,-0.456923 -2.621599,0.0017 v 0.49851 h 2.121321 c 0.30431,-0.01798 0.126286,-0.0066 0.504773,-0.04336 z"
     id="path860-9"
     inkscape:connector-curvature="0"
     sodipodi:nodetypes="cccccc"
     style="stroke-width:0.25;fill:param(fill)#000000" />
  <path
     d="m 16.565369,6.5632499 v 0 l -1.22,1.22 -1,-1 -1.8525,1.855 0.3525,0.3525 1.5,-1.5 1,1 1.575,-1.5725 v 0 L 16.749225,6.7280384 Z"
     id="path860-0"
     inkscape:connector-curvature="0"
     sodipodi:nodetypes="cccccccccccc"
     style="stroke-width:0.25;fill:param(fill)#000000" />
</svg>
