<?xml version="1.0" encoding="UTF-8" standalone="no"?>
<svg
   xmlns:dc="http://purl.org/dc/elements/1.1/"
   xmlns:cc="http://creativecommons.org/ns#"
   xmlns:rdf="http://www.w3.org/1999/02/22-rdf-syntax-ns#"
   xmlns:svg="http://www.w3.org/2000/svg"
   xmlns="http://www.w3.org/2000/svg"
   xmlns:sodipodi="http://sodipodi.sourceforge.net/DTD/sodipodi-0.dtd"
   xmlns:inkscape="http://www.inkscape.org/namespaces/inkscape"
   enable-background="new 0 0 580 580"
   height="580"
   viewBox="0 0 580 580"
   width="580"
   version="1.1"
   id="svg1473"
   sodipodi:docname="shopping_car.svg"
   inkscape:version="0.92.2 (5c3e80d, 2017-08-06)">
  <metadata
     id="metadata1479">
    <rdf:RDF>
      <cc:Work
         rdf:about="">
        <dc:format>image/svg+xml</dc:format>
        <dc:type
           rdf:resource="http://purl.org/dc/dcmitype/StillImage" />
      </cc:Work>
    </rdf:RDF>
  </metadata>
  <defs
     id="defs1477" />
  <sodipodi:namedview
     pagecolor="#ffffff"
     bordercolor="#666666"
     borderopacity="1"
     objecttolerance="10"
     gridtolerance="10"
     guidetolerance="10"
     inkscape:pageopacity="0"
     inkscape:pageshadow="2"
     inkscape:window-width="1920"
     inkscape:window-height="1001"
     id="namedview1475"
     showgrid="false"
     inkscape:zoom="0.40689655"
     inkscape:cx="-580"
     inkscape:cy="290"
     inkscape:window-x="-9"
     inkscape:window-y="-9"
     inkscape:window-maximized="1"
     inkscape:current-layer="svg1473" />
  <path
     d="M 497.729,233.714 456.436,127.207 C 448.665,106.931 431.834,89.609 400.104,89.609 h -58.311 -99.295 -59.015 c -31.729,0 -48.561,17.322 -56.332,37.598 L 85.904,233.714 c -16.352,2.097 -45.338,21.291 -45.338,57.651 v 135.443 h 40.149 v 43.315 c 0,53.29 75.417,52.663 75.417,0 v -43.315 h 135.663 0.044 135.662 v 43.315 c 0,52.663 75.417,53.29 75.418,0 v -43.315 h 40.148 V 291.365 c 0,-36.36 -28.986,-55.554 -45.338,-57.651 z M 119.633,345.191 c -19.239,0 -34.828,-16.096 -34.828,-35.928 0,-19.831 15.589,-35.884 34.828,-35.884 19.241,0 34.828,16.053 34.828,35.884 0,19.833 -15.587,35.928 -34.828,35.928 z M 291.839,232.615 h -0.044 -0.088 -163.103 l 31.09,-83.816 c 3.885,-11.774 9.708,-20.278 23.307,-20.404 h 108.706 0.088 0.044 108.75 c 13.598,0.126 19.422,8.63 23.307,20.404 l 31.09,83.816 z m 172.162,112.576 c -19.239,0 -34.873,-16.096 -34.873,-35.928 0,-19.831 15.634,-35.884 34.873,-35.884 19.24,0 34.828,16.053 34.828,35.884 0,19.833 -15.588,35.928 -34.828,35.928 z"
     stroke="param(outline)"
     stroke-opacity="param(outline-opacity)"
     stroke-width="param(outline-width)"
     id="path1471"
     style="fill:#ffffff;fill-opacity:1"
     inkscape:connector-curvature="0" />
</svg>
