<?xml version="1.0" encoding="UTF-8" standalone="no"?>
<svg
   xmlns:dc="http://purl.org/dc/elements/1.1/"
   xmlns:cc="http://creativecommons.org/ns#"
   xmlns:rdf="http://www.w3.org/1999/02/22-rdf-syntax-ns#"
   xmlns:svg="http://www.w3.org/2000/svg"
   xmlns="http://www.w3.org/2000/svg"
   xmlns:sodipodi="http://sodipodi.sourceforge.net/DTD/sodipodi-0.dtd"
   xmlns:inkscape="http://www.inkscape.org/namespaces/inkscape"
   enable-background="new 0 0 580 580"
   height="50"
   viewBox="0 0 50 50"
   width="50"
   version="1.1"
   id="svg827"
   sodipodi:docname="place_of_worship_christian3.svg"
   inkscape:version="0.92.2 (5c3e80d, 2017-08-06)">
  <metadata
     id="metadata833">
    <rdf:RDF>
      <cc:Work
         rdf:about="">
        <dc:format>image/svg+xml</dc:format>
        <dc:type
           rdf:resource="http://purl.org/dc/dcmitype/StillImage" />
        <dc:title></dc:title>
      </cc:Work>
    </rdf:RDF>
  </metadata>
  <defs
     id="defs831" />
  <sodipodi:namedview
     pagecolor="#ffffff"
     bordercolor="#666666"
     borderopacity="1"
     objecttolerance="10"
     gridtolerance="10"
     guidetolerance="10"
     inkscape:pageopacity="0"
     inkscape:pageshadow="2"
     inkscape:window-width="1920"
     inkscape:window-height="1001"
     id="namedview829"
     showgrid="false"
     inkscape:zoom="1.8969968"
     inkscape:cx="290"
     inkscape:cy="126.59492"
     inkscape:window-x="-9"
     inkscape:window-y="-9"
     inkscape:window-maximized="1"
     inkscape:current-layer="svg827" />
  <path
     style="stroke-width:0.09"
     d="m 20.514649,2.6530274 c -0.49707,0 -0.9,0.4029299 -0.9,0.9 V 16.759473 c -0.02997,0.0018 -0.06623,0.0035 -0.108985,0.0035 -0.1431,0 -0.301553,-0.01521 -0.455273,-0.02988 l -0.123047,-0.0123 c -0.03033,-0.0027 -0.06108,-0.0035 -0.09141,-0.0035 -1.235069,0.01584 -2.542576,0.02285 -4.238086,0.02285 -0.80163,0 -1.602967,-0.0017 -2.404687,-0.0035 -1.37025,-0.0027 -2.7398755,-0.0052 -4.1097655,0 -0.49581,0.0018 -0.8964845,0.40428 -0.8964845,0.9 v 6.931055 c 0,0.49608 0.4004045,0.89856 0.8964845,0.9 1.521,0.0045 3.0435895,0.002 4.5650385,0 0.890731,-9e-4 1.781145,-0.0035 2.671875,-0.0035 1.703792,0 3.055832,0.0053 4.313672,0.01582 0.0027,0.11601 -0.0058,0.267626 -0.01231,0.372656 -0.01188,0.19773 -0.02567,0.400129 -0.01055,0.611719 0.0036,4.58703 0.0044,9.251565 0.0035,13.761915 -3.6e-4,2.83635 -7.2e-4,5.67322 0,8.50957 9e-5,0.49689 0.40302,0.898242 0.9,0.898242 h 7.758984 c 0.49662,0 0.89928,-0.401802 0.9,-0.898242 0.0045,-3.01041 0.002,-6.07136 0,-9.03164 -0.0036,-4.67388 -0.0064,-9.50224 0.01582,-14.25586 0.01566,-4.5e-4 0.03226,0 0.05098,0 0.09603,0 0.203775,0.0053 0.318165,0.0123 0.13032,0.0081 0.265067,0.01582 0.404297,0.01582 0.07452,0 0.14339,-0.0025 0.20918,-0.007 1.43505,-0.0027 2.8715,-0.0035 4.30664,-0.0035 l 4.89375,0.0018 c 0.58149,0 1.16235,-0.0015 1.74375,-0.0018 0.49689,-2.7e-4 0.9,-0.40311 0.9,-0.9 v -6.929297 c 9e-5,-0.49626 -0.402162,-0.89856 -0.898242,-0.9 -1.57266,-0.0045 -3.144409,-2.22e-4 -4.717969,0.0018 -0.92115,9e-4 -1.842491,0.0018 -2.763281,0.0018 -1.77102,0 -3.173955,-0.0052 -4.480665,-0.01582 -0.0027,-0.11601 0.0058,-0.265868 0.0123,-0.370898 0.01188,-0.19782 0.02391,-0.403645 0.0088,-0.615235 -0.0036,-2.51631 -0.0044,-5.073586 -0.0035,-7.5480463 4.5e-4,-1.54593 0.0025,-3.0912694 0.0018,-4.6371093 -2.7e-4,-0.4968901 -0.40311,-0.9 -0.9,-0.9 z"
     id="path825"
     inkscape:connector-curvature="0" />
</svg>
