<?xml version="1.0" encoding="UTF-8" standalone="no"?>
<svg
   xmlns:dc="http://purl.org/dc/elements/1.1/"
   xmlns:cc="http://creativecommons.org/ns#"
   xmlns:rdf="http://www.w3.org/1999/02/22-rdf-syntax-ns#"
   xmlns:svg="http://www.w3.org/2000/svg"
   xmlns="http://www.w3.org/2000/svg"
   xmlns:sodipodi="http://sodipodi.sourceforge.net/DTD/sodipodi-0.dtd"
   xmlns:inkscape="http://www.inkscape.org/namespaces/inkscape"
   height="24"
   viewBox="0 0 24 24"
   width="24"
   version="1.1"
   id="svg1986"
   sodipodi:docname="add_quietlocation-24px.svg"
   inkscape:version="0.92.2 (5c3e80d, 2017-08-06)">
  <metadata
     id="metadata1992">
    <rdf:RDF>
      <cc:Work
         rdf:about="">
        <dc:format>image/svg+xml</dc:format>
        <dc:type
           rdf:resource="http://purl.org/dc/dcmitype/StillImage" />
        <dc:title></dc:title>
      </cc:Work>
    </rdf:RDF>
  </metadata>
  <defs
     id="defs1990" />
  <sodipodi:namedview
     pagecolor="#ffffff"
     bordercolor="#666666"
     borderopacity="1"
     objecttolerance="10"
     gridtolerance="10"
     guidetolerance="10"
     inkscape:pageopacity="0"
     inkscape:pageshadow="2"
     inkscape:window-width="1920"
     inkscape:window-height="1001"
     id="namedview1988"
     showgrid="false"
     inkscape:zoom="27.812867"
     inkscape:cx="2.3701721"
     inkscape:cy="11.300774"
     inkscape:window-x="-9"
     inkscape:window-y="-9"
     inkscape:window-maximized="1"
     inkscape:current-layer="svg1986" />
  <path
     d="M0 0h24v24H0z"
     fill="none"
     id="path1982" />
  <path
     d="m 20,1 v 3 h 3 V 6 H 20 V 9 H 18 V 6 H 15 V 4 h 3 V 1 Z M 13,3.06 V 5.08 C 12.669211,5.0277301 12.334892,5.0009846 12,5 8.65,5 6,7.57 6,11.2 c 0,2.34 1.95,5.44 6,9.14 4.05,-3.7 6,-6.79 6,-9.14 V 11 h 2 v 0.2 C 20,14.52 17.33,18.45 12,23 6.67,18.45 4,14.52 4,11.2 4,6.22 7.8,3 12,3 c 0.34,0 0.67,0.02 1,0.06 z"
     id="path1984"
     inkscape:connector-curvature="0"
     sodipodi:nodetypes="ccccccccccccccccscsccscssc" />
  <path
     d="m 9.6403882,10.234915 v 2.639998 h 1.7599998 l 2.2,2.2 V 8.0349145 l -2.2,2.2000005 z m 3.0799998,-0.0748 v 2.789598 l -0.9548,-0.954799 h -1.2452 v -0.879999 h 1.2452 z"
     id="path4"
     inkscape:connector-curvature="0"
     sodipodi:nodetypes="cccccccccccccc"
     style="stroke-width:0.44" />
  <path
     d="m 9.4289667,13.91221 0.4405073,0.387474 5.286667,-4.8529574 -0.4707,-0.4318223 -4.279115,3.9256787 c -0.5968746,0.578726 -0.248511,0.23942 -0.9772832,0.971684 z"
     id="path860-9"
     inkscape:connector-curvature="0"
     sodipodi:nodetypes="cccccc"
     style="stroke-width:0.46735224" />
  <path
     d="m 16.587447,10.994395 c -0.23,-2.0850003 -1.885,-3.7400003 -3.97,-3.9700003 -0.906577,-0.044097 -0.235965,-0.00784 -1,0 -2.0849998,0.23 -3.7399998,1.885 -3.9699998,3.9700003 -0.02612,0.879611 -0.03481,0.613488 0,1 0.23,2.085 1.885,3.74 3.9699998,3.97 1,0 0.300299,0.01863 1,0 2.085,-0.23 3.74,-1.885 3.97,-3.97 0.03712,-0.794128 0.01863,-0.399174 0,-1 z m -4.47,4 c -1.935,0 -3.4999998,-1.565 -3.4999998,-3.5 0,-1.9350003 1.5649998,-3.5000003 3.4999998,-3.5000003 1.935,0 3.5,1.565 3.5,3.5000003 0,1.935 -1.565,3.5 -3.5,3.5 z"
     id="path7819"
     inkscape:connector-curvature="0"
     sodipodi:nodetypes="cccccccccsssss"
     style="stroke-width:0.5" />
</svg>
