<?xml version="1.0" encoding="UTF-8" standalone="no"?>
<svg
   xmlns:dc="http://purl.org/dc/elements/1.1/"
   xmlns:cc="http://creativecommons.org/ns#"
   xmlns:rdf="http://www.w3.org/1999/02/22-rdf-syntax-ns#"
   xmlns:svg="http://www.w3.org/2000/svg"
   xmlns="http://www.w3.org/2000/svg"
   xmlns:sodipodi="http://sodipodi.sourceforge.net/DTD/sodipodi-0.dtd"
   xmlns:inkscape="http://www.inkscape.org/namespaces/inkscape"
   enable-background="new 0 0 580 580"
   height="580"
   viewBox="0 0 580 580"
   width="580"
   version="1.1"
   id="svg839"
   sodipodi:docname="transport_ambulance.svg"
   inkscape:version="0.92.2 (5c3e80d, 2017-08-06)">
  <metadata
     id="metadata845">
    <rdf:RDF>
      <cc:Work
         rdf:about="">
        <dc:format>image/svg+xml</dc:format>
        <dc:type
           rdf:resource="http://purl.org/dc/dcmitype/StillImage" />
        <dc:title></dc:title>
      </cc:Work>
    </rdf:RDF>
  </metadata>
  <defs
     id="defs843" />
  <sodipodi:namedview
     pagecolor="#ffffff"
     bordercolor="#666666"
     borderopacity="1"
     objecttolerance="10"
     gridtolerance="10"
     guidetolerance="10"
     inkscape:pageopacity="0"
     inkscape:pageshadow="2"
     inkscape:window-width="1600"
     inkscape:window-height="1251"
     id="namedview841"
     showgrid="false"
     inkscape:zoom="1.3413793"
     inkscape:cx="290"
     inkscape:cy="290"
     inkscape:window-x="390"
     inkscape:window-y="-9"
     inkscape:window-maximized="1"
     inkscape:current-layer="svg839" />
  <path
     d="m257.633 492.351l-97.215-.607c.433 67.569 97.215 67.57 97.215.607z"
     fill="param(fill)"
     fill-opacity="param(fill-opacity)"
     stroke="param(outline)"
     stroke-opacity="param(outline-opacity)"
     stroke-width="param(outline-width)"
     id="path831" />
  <path
     d="m458.139 492.331l-97.215-.607c.432 67.569 97.215 67.57 97.215.607z"
     fill="param(fill)"
     fill-opacity="param(fill-opacity)"
     stroke="param(outline)"
     stroke-opacity="param(outline-opacity)"
     stroke-width="param(outline-width)"
     id="path833" />
  <path
     d="m343.76 492.199h-68.506c-.485 15.811-2.964 23.147-7.139 30.379h81.417c-4.144-7.177-6.035-14.786-5.772-30.379z"
     fill="param(fill)"
     fill-opacity="param(fill-opacity)"
     stroke="param(outline)"
     stroke-opacity="param(outline-opacity)"
     stroke-width="param(outline-width)"
     id="path835" />
  <path
     d="m 131.771,205.029 0.259,29.15 h -0.309 L 65.769,365.445 v 79.616 c 0,14.379 16.979,29.327 29.924,29.287 h 413.344 v -105.76 -0.592 -132.177 -1.412 -29.378 c -181.30242,0.92616 -225.07413,0 -377.266,0 z M 333.128,193.65 c -222.08533,257.56667 -111.04267,128.78333 0,0 z m -47.802,55.562 -0.088,188.167 c -1.735,9.831 -8.6,11.653 -14.109,16.929 h -46.806 c -5.538,-5.413 -12.538,-7.162 -14.292,-17.102 l -0.089,-188.167 c 0,-4.237 5.925,-8.411 12.777,-13.22 h 49.583 c 6.957,4.882 13.024,9.104 13.024,13.393 z m -178.519,74.103 43.055,-87.496 h 40.278 l -0.128,132.314 h -56.241 c -12.95,0 -34.804,-15.561 -26.964,-44.818 z m 388.202,-74.424 -0.091,102.39 c -1.71,9.688 -8.393,11.614 -13.857,16.716 H 320.915 c -5.534,-5.353 -12.691,-6.715 -14.439,-16.617 l -0.919,0.011 0.215,-102.568 c 0,-3.788 6.245,-8.178 13.106,-13.002 h 163.564 c 6.764,4.745 12.567,8.875 12.567,13.07 z"
     fill="param(fill)"
     fill-opacity="param(fill-opacity)"
     stroke="param(outline)"
     stroke-opacity="param(outline-opacity)"
     stroke-width="param(outline-width)"
     id="path837"
     inkscape:connector-curvature="0"
     sodipodi:nodetypes="ccccscccccccccccccccccccccccsccccccccccc" />
  <path
     inkscape:connector-curvature="0"
     d="m 403.07222,285.1977 v -31.77285 h -24.11359 v 31.77285 h -27.12762 v 28.24253 h 27.12762 v 31.77247 h 24.11359 v -31.77247 h 27.12762 V 285.1977 Z m 21.09922,21.1819 h -27.12762 v 31.77246 h -12.0568 V 306.3796 H 357.8594 v -14.12127 h 27.12762 v -31.77285 h 12.0568 v 31.77285 h 27.12762 z"
     fill="param(fill)"
     fill-opacity="param(fill-opacity)"
     stroke="param(outline)"
     stroke-opacity="param(outline-opacity)"
     id="path867"
     style="stroke-width:0.17997606" />
</svg>
