<?xml version="1.0" encoding="UTF-8" standalone="no"?>
<svg
   xmlns:dc="http://purl.org/dc/elements/1.1/"
   xmlns:cc="http://creativecommons.org/ns#"
   xmlns:rdf="http://www.w3.org/1999/02/22-rdf-syntax-ns#"
   xmlns:svg="http://www.w3.org/2000/svg"
   xmlns="http://www.w3.org/2000/svg"
   xmlns:sodipodi="http://sodipodi.sourceforge.net/DTD/sodipodi-0.dtd"
   xmlns:inkscape="http://www.inkscape.org/namespaces/inkscape"
   enable-background="new 0 0 580 580"
   height="580"
   viewBox="0 0 580 580"
   width="580"
   version="1.1"
   id="svg875"
   sodipodi:docname="transport_train_station2.svg"
   inkscape:version="0.92.2 (5c3e80d, 2017-08-06)">
  <metadata
     id="metadata881">
    <rdf:RDF>
      <cc:Work
         rdf:about="">
        <dc:format>image/svg+xml</dc:format>
        <dc:type
           rdf:resource="http://purl.org/dc/dcmitype/StillImage" />
      </cc:Work>
    </rdf:RDF>
  </metadata>
  <defs
     id="defs879" />
  <sodipodi:namedview
     pagecolor="#ffffff"
     bordercolor="#666666"
     borderopacity="1"
     objecttolerance="10"
     gridtolerance="10"
     guidetolerance="10"
     inkscape:pageopacity="0"
     inkscape:pageshadow="2"
     inkscape:window-width="1920"
     inkscape:window-height="1001"
     id="namedview877"
     showgrid="false"
     inkscape:zoom="1.3413793"
     inkscape:cx="26.092541"
     inkscape:cy="290"
     inkscape:window-x="-9"
     inkscape:window-y="-9"
     inkscape:window-maximized="1"
     inkscape:current-layer="svg875" />
  <path
     d="m 403.404,434.67 c 28.344,-4.567 56.564,-34.117 56.564,-70.145 V 101.12 c 0,-37.188 -31.305,-71.319 -73.807,-71.319 l -90.566,-0.069 -91.257,0.069 c -42.503,0 -73.773,34.132 -73.773,71.319 v 263.405 c 0,36.027 28.187,65.577 56.53,70.145 l -85.002,127.505 h 49.066 L 211.94,473.06 h 83.241 0.068 0.069 83.24 l 60.781,89.115 h 49.066 z M 247.358,56.891 c 0,-6.466 5.627,-11.887 12.094,-11.887 h 35.729 0.068 0.069 35.729 c 6.467,0 12.094,5.42 12.094,11.887 v 20.94 c 0,6.466 -5.319,12.024 -12.094,12.024 h -35.729 -0.069 -0.068 -35.729 c -6.774,0 -12.094,-5.558 -12.094,-12.024 z m -44.574,339.355 c -17.866,0 -32.343,-14.478 -32.343,-32.342 0,-17.867 14.477,-32.344 32.343,-32.344 17.866,0 32.377,14.477 32.377,32.344 0,17.865 -14.512,32.342 -32.377,32.342 z M 295.25,225.135 h -0.068 -88.39 c -20.324,0 -36.953,-13.979 -36.766,-36.766 v -47.408 c 0,-19.707 12.747,-36.903 36.766,-36.903 h 88.39 0.138 88.389 c 24.019,0 36.766,17.196 36.766,36.903 v 47.408 c 0.188,22.787 -16.442,36.766 -36.766,36.766 H 295.32 Z m 59.364,138.769 c 0,-17.867 14.477,-32.344 32.342,-32.344 17.866,0 32.343,14.477 32.343,32.344 0,17.864 -14.477,32.342 -32.343,32.342 -17.865,0 -32.342,-14.477 -32.342,-32.342 z"
     stroke="param(outline)"
     stroke-opacity="param(outline-opacity)"
     stroke-width="param(outline-width)"
     id="path873"
     style="fill:param(fill)#ffffff;fill-opacity:1"
     inkscape:connector-curvature="0" />
</svg>
