<?xml version="1.0" encoding="UTF-8" standalone="no"?>
<svg
   xmlns:dc="http://purl.org/dc/elements/1.1/"
   xmlns:cc="http://creativecommons.org/ns#"
   xmlns:rdf="http://www.w3.org/1999/02/22-rdf-syntax-ns#"
   xmlns:svg="http://www.w3.org/2000/svg"
   xmlns="http://www.w3.org/2000/svg"
   xmlns:sodipodi="http://sodipodi.sourceforge.net/DTD/sodipodi-0.dtd"
   xmlns:inkscape="http://www.inkscape.org/namespaces/inkscape"
   height="24"
   viewBox="0 0 24 24"
   width="24"
   version="1.1"
   id="svg7171"
   sodipodi:docname="add-poly-layer24px.svg"
   inkscape:version="0.92.2 (5c3e80d, 2017-08-06)">
  <metadata
     id="metadata7177">
    <rdf:RDF>
      <cc:Work
         rdf:about="">
        <dc:format>image/svg+xml</dc:format>
        <dc:type
           rdf:resource="http://purl.org/dc/dcmitype/StillImage" />
      </cc:Work>
    </rdf:RDF>
  </metadata>
  <defs
     id="defs7175" />
  <sodipodi:namedview
     pagecolor="#ffffff"
     bordercolor="#666666"
     borderopacity="1"
     objecttolerance="10"
     gridtolerance="10"
     guidetolerance="10"
     inkscape:pageopacity="0"
     inkscape:pageshadow="2"
     inkscape:window-width="1264"
     inkscape:window-height="701"
     id="namedview7173"
     showgrid="false"
     inkscape:zoom="27.812867"
     inkscape:cx="12.437637"
     inkscape:cy="11.261729"
     inkscape:window-x="0"
     inkscape:window-y="0"
     inkscape:window-maximized="0"
     inkscape:current-layer="svg7171" />
  <path
     d="M0 0h24v24H0z"
     fill="none"
     id="path7167" />
  <g
     id="g7796"
     transform="rotate(-15,12.084634,10.71076)">
    <path
       id="path7726"
       d="M 3.9,12 C 3.9,10.29 5.29,8.9 7,8.9 h 4 V 7 H 7 c -2.76,0 -5,2.24 -5,5 0,2.76 3.2633384,5.696743 5.7063884,5.003162 L 13.385853,15.83781 13.26056,14.127575 7,15.1 C 5.3102619,15.36246 3.9,13.71 3.9,12 Z"
       inkscape:connector-curvature="0"
       sodipodi:nodetypes="ssccsssccss" />
    <path
       id="path7169"
       d="m 17,7 h -4 v 1.9 h 4 c 1.71,0 3.815205,-0.1678387 3.815205,1.542161 0,1.71 -1.833586,5.17315 -3.815205,4.657839 l -3.73944,-0.972425 c -0.100478,0.730487 -0.29385,-1.130462 -0.752249,1.512321 L 17,17 c 2.641553,0.799874 5.748109,-4.198474 5.748109,-6.958474 C 22.748109,7.2815257 19.76,7 17,7 Z"
       inkscape:connector-curvature="0"
       sodipodi:nodetypes="sccsssccsss" />
    <rect
       y="5.9792132"
       x="9.5893831"
       height="3.4991999"
       width="3.4991999"
       id="rect6516-8"
       style="opacity:1;fill:#000000;fill-opacity:1;fill-rule:nonzero;stroke-width:0.58319998" />
    <path
       style="fill:#ffffff;stroke-width:0.80190003"
       inkscape:connector-curvature="0"
       id="path6512-00"
       d="m 10.503185,6.8252176 h 1.603801 v 1.6038 h -1.603801 z" />
    <rect
       y="13.713284"
       x="11.52063"
       height="3.4991999"
       width="3.4991999"
       id="rect6516-8-7"
       style="opacity:1;fill:#000000;fill-opacity:1;fill-rule:nonzero;stroke-width:0.58319998" />
    <path
       style="fill:#ffffff;stroke-width:0.80190003"
       inkscape:connector-curvature="0"
       id="path6512-00-4"
       d="m 12.434432,14.559289 h 1.603801 v 1.6038 h -1.603801 z" />
    <rect
       y="11.153995"
       x="1.3823977"
       height="3.4991999"
       width="3.4991999"
       id="rect6516-8-74"
       style="opacity:1;fill:#000000;fill-opacity:1;fill-rule:nonzero;stroke-width:0.58319998" />
    <path
       style="fill:#ffffff;stroke-width:0.80190003"
       inkscape:connector-curvature="0"
       id="path6512-00-3"
       d="M 2.2961991,12 H 3.9 v 1.6038 H 2.2961991 Z" />
  </g>
</svg>
